<svg width="1440" height="960" viewBox="0 0 1440 960" fill="none" xmlns="http://www.w3.org/2000/svg">
<line x1="0.5" y1="2.18557e-08" x2="0.499958" y2="959" stroke="black" stroke-opacity="0.2"/>
<line x1="1439" y1="0.5" y2="0.5" stroke="black" stroke-opacity="0.2"/>
<line x1="1439" y1="96.5" y2="96.5" stroke="black" stroke-opacity="0.2"/>
<line x1="1439" y1="192.5" y2="192.5" stroke="black" stroke-opacity="0.2"/>
<line x1="1439" y1="288.5" y2="288.5" stroke="black" stroke-opacity="0.2"/>
<line x1="1439" y1="384.5" y2="384.5" stroke="black" stroke-opacity="0.2"/>
<line x1="1439" y1="480.5" y2="480.5" stroke="black" stroke-opacity="0.2"/>
<line x1="1439" y1="575.5" y2="575.5" stroke="black" stroke-opacity="0.2"/>
<line x1="1439" y1="672.5" y2="672.5" stroke="black" stroke-opacity="0.2"/>
<line x1="1439" y1="767.5" y2="767.5" stroke="black" stroke-opacity="0.2"/>
<line x1="1439" y1="864.5" y2="864.5" stroke="black" stroke-opacity="0.2"/>
<line x1="1439" y1="959.5" y2="959.5" stroke="black" stroke-opacity="0.2"/>
<line x1="96.5" y1="2.18557e-08" x2="96.5" y2="959" stroke="black" stroke-opacity="0.2"/>
<line x1="192.5" y1="2.18557e-08" x2="192.5" y2="959" stroke="black" stroke-opacity="0.2"/>
<line x1="288.5" y1="2.18557e-08" x2="288.5" y2="959" stroke="black" stroke-opacity="0.2"/>
<line x1="384.5" y1="2.18557e-08" x2="384.5" y2="959" stroke="black" stroke-opacity="0.2"/>
<line x1="480.5" y1="2.18557e-08" x2="480.5" y2="959" stroke="black" stroke-opacity="0.2"/>
<line x1="575.5" y1="2.18557e-08" x2="575.5" y2="959" stroke="black" stroke-opacity="0.2"/>
<line x1="672.5" y1="2.18557e-08" x2="672.5" y2="959" stroke="black" stroke-opacity="0.2"/>
<line x1="767.5" y1="2.18557e-08" x2="767.5" y2="959" stroke="black" stroke-opacity="0.2"/>
<line x1="864.5" y1="2.18557e-08" x2="864.5" y2="959" stroke="black" stroke-opacity="0.2"/>
<line x1="959.5" y1="2.18557e-08" x2="959.5" y2="959" stroke="black" stroke-opacity="0.2"/>
<line x1="1055.5" y1="2.18557e-08" x2="1055.5" y2="959" stroke="black" stroke-opacity="0.2"/>
<line x1="1151.5" y1="2.18557e-08" x2="1151.5" y2="959" stroke="black" stroke-opacity="0.2"/>
<line x1="1247.5" y1="2.18557e-08" x2="1247.5" y2="959" stroke="black" stroke-opacity="0.2"/>
<line x1="1343.5" y1="2.18557e-08" x2="1343.5" y2="959" stroke="black" stroke-opacity="0.2"/>
<line x1="1439.5" y1="2.18557e-08" x2="1439.5" y2="959" stroke="black" stroke-opacity="0.2"/>
<line x1="1439.5" y1="2.18557e-08" x2="1439.5" y2="959" stroke="black" stroke-opacity="0.2"/>
</svg>
